<svg xmlns="http://www.w3.org/2000/svg" width="150" height="150" viewBox="0 0 150 150">
  <g id="Grupo_8" data-name="Grupo 8" transform="translate(3026 526)">
    <g id="Retângulo_6" data-name="Retângulo 6" transform="translate(-3026 -526)" fill="#2c3e66" stroke="#fe6f5f" stroke-width="10">
      <rect width="150" height="150" rx="36" stroke="none"/>
      <rect x="5" y="5" width="140" height="140" rx="31" fill="none"/>
    </g>
    <g id="Grupo_1" data-name="Grupo 1" transform="translate(-2948 -68)">
      <g id="Polígono_8" data-name="Polígono 8" transform="matrix(-1, -0.017, 0.017, -1, 49.984, -350.371)" fill="#2c3e66">
        <path d="M 73.14970397949219 56.99999618530273 L 33.85030364990234 56.99999618530273 C 31.17316055297852 56.99999618530273 28.63992500305176 56.23474884033203 26.52445411682129 54.7869987487793 C 24.5401496887207 53.42900848388672 22.96350288391113 51.52013778686523 21.9649486541748 49.26672744750977 C 20.96640777587891 47.01332473754883 20.61141967773438 44.56309127807617 20.9383487701416 42.18092727661133 C 21.28690147399902 39.64129257202148 22.42168998718262 37.25064468383789 24.22002029418945 35.2674446105957 L 43.86971282958984 13.59769058227539 C 45.12905502319336 12.20886707305908 46.62934875488281 11.13197326660156 48.32889175415039 10.39689064025879 C 49.96533584594727 9.689114570617676 51.70515060424805 9.330244064331055 53.49999618530273 9.330244064331055 C 55.29484176635742 9.330244064331055 57.0346565246582 9.689114570617676 58.67110061645508 10.39689064025879 C 60.37064361572266 11.13197326660156 61.87093734741211 12.20886707305908 63.13027954101563 13.59769058227539 L 82.77998352050781 35.2674446105957 C 84.57831573486328 37.25064468383789 85.71308898925781 39.64129257202148 86.0616455078125 42.18092727661133 C 86.38858795166016 44.56309127807617 86.03358459472656 47.01332473754883 85.03504180908203 49.26672744750977 C 84.03649139404297 51.52013778686523 82.45984649658203 53.42900848388672 80.47554016113281 54.7869987487793 C 78.36007690429688 56.23474884033203 75.82684326171875 56.99999618530273 73.14970397949219 56.99999618530273 Z" stroke="none"/>
        <path d="M 53.49999618530273 11.33024215698242 C 51.97983932495117 11.33024215698242 50.50715255737305 11.63382720947266 49.12284088134766 12.2325553894043 C 47.68675231933594 12.85366821289063 46.41782379150391 13.76498413085938 45.35129547119141 14.94115447998047 L 25.70159912109375 36.61091232299805 C 24.15341186523438 38.31825637817383 23.21746826171875 40.28376770019531 22.91978454589844 42.4528694152832 C 22.64336395263672 44.46682739257813 22.94548034667969 46.54283905029297 23.79346466064453 48.45647048950195 C 24.64145660400391 50.37008666992188 25.97639465332031 51.98841094970703 27.65399932861328 53.13651275634766 C 29.46080780029297 54.37302780151367 31.54555511474609 55 33.85029602050781 55 L 73.14969635009766 55 C 75.45443725585938 55 77.5391845703125 54.37302780151367 79.34599304199219 53.13651275634766 C 81.02359771728516 51.98841094970703 82.35853576660156 50.37008666992188 83.20652770996094 48.45647048950195 C 84.05451202392578 46.54283905029297 84.35662841796875 44.46682739257813 84.08020782470703 42.4528694152832 C 83.78252410888672 40.28376770019531 82.84658050537109 38.31825637817383 81.29840087890625 36.61091232299805 L 61.64869689941406 14.94115447998047 C 60.58216857910156 13.76498413085938 59.31324005126953 12.85366821289063 57.87715148925781 12.2325553894043 C 56.49283981323242 11.63382720947266 55.0201530456543 11.33024215698242 53.49999618530273 11.33024215698242 M 53.49999618530273 7.330238342285156 C 57.56761169433594 7.330238342285156 61.63522338867188 8.971561431884766 64.61186218261719 12.25421142578125 L 84.26156616210938 33.92396926879883 C 93.00292205810547 43.56398391723633 86.16281127929688 59 73.14969635009766 59 L 33.85029602050781 59 C 20.83718109130859 59 13.9970703125 43.56398391723633 22.73842620849609 33.92396926879883 L 42.38812255859375 12.25421142578125 C 45.36476898193359 8.971561431884766 49.43238067626953 7.330238342285156 53.49999618530273 7.330238342285156 Z" stroke="none" fill="#f7f8f3"/>
      </g>
      <g id="Polígono_9" data-name="Polígono 9" transform="matrix(1, 0.017, -0.017, 1, -42.761, -430)" fill="#fe6f5f">
        <path d="M 54.33261108398438 69 L 25.66739082336426 69 C 20.9962100982666 69 16.80035018920898 66.59223937988281 14.4434700012207 62.55924987792969 C 12.0866003036499 58.52624893188477 12.04835033416748 53.68878936767578 14.34117031097412 49.61904144287109 L 28.67378044128418 24.17865943908691 C 31.00877952575684 20.03402900695801 35.24288177490234 17.55961990356445 40 17.55961990356445 C 44.75711059570313 17.55961990356445 48.9912109375 20.03402900695801 51.32621002197266 24.17865943908691 L 65.65882110595703 49.61904144287109 C 67.95165252685547 53.68878936767578 67.91339874267578 58.52624893188477 65.55653381347656 62.55924987792969 C 63.19964981079102 66.59223937988281 59.00379180908203 69 54.33261108398438 69 Z" stroke="none"/>
        <path d="M 40 19.55961608886719 C 38.08967590332031 19.55961608886719 36.21701431274414 20.04327011108398 34.58443832397461 20.95827102661133 C 32.83808898925781 21.93705749511719 31.43571090698242 23.35084533691406 30.41627502441406 25.16034317016602 L 16.08366394042969 50.6007194519043 C 15.08208465576172 52.37853240966797 14.599365234375 54.27900695800781 14.64890289306641 56.24935913085938 C 14.69527435302734 58.09346008300781 15.22133636474609 59.92642974853516 16.17022323608398 61.55013275146484 C 17.11911392211914 63.17383193969727 18.4578742980957 64.53186798095703 20.04177474975586 65.47743225097656 C 21.73412322998047 66.48773193359375 23.62685012817383 66.99999237060547 25.66738891601563 66.99999237060547 L 54.33261108398438 66.99999237060547 C 56.37314987182617 66.99999237060547 58.26587677001953 66.48773193359375 59.95822525024414 65.47743225097656 C 61.5421257019043 64.53186798095703 62.88088989257813 63.17383193969727 63.82977294921875 61.55013275146484 C 64.77866363525391 59.92642974853516 65.30472564697266 58.09346008300781 65.35109710693359 56.24935913085938 C 65.400634765625 54.27900695800781 64.91791534423828 52.37853240966797 63.91633605957031 50.6007194519043 L 49.58372497558594 25.16034317016602 C 48.56428527832031 23.35084533691406 47.16191101074219 21.93705749511719 45.41555023193359 20.95827102661133 C 43.78298568725586 20.04327011108398 41.91031265258789 19.55961608886719 40 19.55961608886719 M 39.99999618530273 15.55961608886719 C 45.1001091003418 15.55961608886719 50.20022583007813 18.10540008544922 53.06871032714844 23.19696807861328 L 67.40132141113281 48.63734436035156 C 73.03466033935547 58.63652038574219 65.8094482421875 70.99999237060547 54.33261108398438 70.99999237060547 L 25.66738891601563 70.99999237060547 C 14.1905517578125 70.99999237060547 6.965339660644531 58.63652038574219 12.59867858886719 48.63734436035156 L 26.9312858581543 23.19696807861328 C 29.79977035522461 18.10540008544922 34.89987945556641 15.55961608886719 39.99999618530273 15.55961608886719 Z" stroke="none" fill="#f7f8f3"/>
      </g>
      <g id="Polígono_10" data-name="Polígono 10" transform="matrix(-1, 0.017, -0.017, -1, 36.86, -338)" fill="#f7f8f3">
        <path d="M 55.26855087280273 43.25081253051758 C 54.99541854858398 43.25082397460938 54.711669921875 43.22358322143555 54.42517852783203 43.16987228393555 L 41.47431182861328 40.74158477783203 C 40.9893913269043 40.65066528320313 40.49337005615234 40.60456466674805 40 40.60456466674805 C 39.50664138793945 40.60456466674805 39.0106086730957 40.65065383911133 38.52569961547852 40.74157333374023 L 25.57481002807617 43.16987228393555 C 25.28837013244629 43.22357177734375 25.00458908081055 43.25081253051758 24.73137092590332 43.25081253051758 C 22.67086982727051 43.25081253051758 21.4462890625 41.74249267578125 21.02371978759766 40.45085525512695 C 20.81467056274414 39.81189346313477 20.30141067504883 37.60343170166016 22.47340965270996 36.01187515258789 L 28.75632095336914 31.40802383422852 C 30.00001907348633 30.49668312072754 30.94862937927246 29.25382423400879 31.49959945678711 27.81379318237305 L 36.26411056518555 15.36107349395752 C 36.98928070068359 13.46576309204102 38.66942977905273 12.7904634475708 40 12.7904634475708 C 41.33057022094727 12.7904634475708 43.0107307434082 13.46576309204102 43.73590087890625 15.36108303070068 L 48.50041961669922 27.81378364562988 C 49.05136871337891 29.25381278991699 49.9999885559082 30.49668312072754 51.24369812011719 31.40802383422852 L 57.52658843994141 36.01186370849609 C 59.69821929931641 37.60315322875977 59.18498992919922 39.81155395507813 58.97595977783203 40.45050430297852 C 58.55337142944336 41.74225234985352 57.32883834838867 43.2507438659668 55.26855087280273 43.25081253051758 Z" stroke="none"/>
        <path d="M 40 14.79045486450195 C 39.58623123168945 14.79045486450195 38.57590866088867 14.91569519042969 38.13206100463867 16.07576370239258 L 33.36753845214844 28.52848434448242 C 32.6788215637207 30.32852363586426 31.49306869506836 31.88210296630859 29.93844985961914 33.02128601074219 L 23.65554046630859 37.6251220703125 C 22.68751907348633 38.33445358276367 22.72372817993164 39.21510314941406 22.92456817626953 39.82897186279297 C 23.00225067138672 40.06640243530273 23.45442962646484 41.25081253051758 24.73136901855469 41.25081253051758 C 24.88122940063477 41.25081253051758 25.04101181030273 41.23510360717773 25.20624160766602 41.20412445068359 L 38.15711975097656 38.77583312988281 C 38.76327896118164 38.66218566894531 39.38330841064453 38.60455322265625 40 38.60455322265625 C 40.61669158935547 38.60455322265625 41.23672103881836 38.66218566894531 41.84288024902344 38.77583312988281 L 54.79377746582031 41.20412445068359 C 54.95898056030273 41.23509216308594 55.11874008178711 41.25080108642578 55.26861953735352 41.25080108642578 C 56.54516983032227 41.25080108642578 56.99737930297852 40.06622314453125 57.07506942749023 39.82876205444336 C 57.27592086791992 39.21487426757813 57.31220245361328 38.33423614501953 56.34445953369141 37.6251220703125 L 50.06156158447266 33.02127075195313 C 48.50695037841797 31.88212394714355 47.3211784362793 30.32853317260742 46.63246154785156 28.52847290039063 L 41.86796188354492 16.07576370239258 C 41.42409896850586 14.91569519042969 40.41378021240234 14.79045486450195 40 14.79045486450195 M 40.00000381469727 10.79045104980469 C 42.31015014648438 10.79045104980469 44.62029647827148 12.07575988769531 45.60383987426758 14.6463737487793 L 50.36834716796875 27.09909248352051 C 50.78068923950195 28.17679405212402 51.49504089355469 29.11274337768555 52.42581176757813 29.79477310180664 L 58.70870971679688 34.39861297607422 C 63.51743698120117 37.92225646972656 60.76273345947266 45.25080108642578 55.26862335205078 45.25080108642578 C 54.87782669067383 45.25080108642578 54.47336959838867 45.21374893188477 54.05658721923828 45.13560485839844 L 41.10572814941406 42.70732116699219 C 40.74034118652344 42.63881301879883 40.37017059326172 42.60455703735352 40.00000381469727 42.60455703735352 C 39.62983322143555 42.60455703735352 39.25966644287109 42.63881301879883 38.89427185058594 42.70732116699219 L 25.94338989257813 45.13561248779297 C 25.52699279785156 45.21368789672852 25.121826171875 45.25080871582031 24.73136901855469 45.25080871582031 C 19.23654174804688 45.25080871582031 16.48223876953125 37.92250061035156 21.29129028320313 34.39862060546875 L 27.57419967651367 29.79477310180664 C 28.50495910644531 29.11274337768555 29.21931076049805 28.17679405212402 29.63164901733398 27.09909248352051 L 34.39617156982422 14.64638519287109 C 35.37971115112305 12.07576370239258 37.68985748291016 10.79045104980469 40.00000381469727 10.79045104980469 Z" stroke="none" fill="#2c3e66"/>
      </g>
    </g>
  </g>
</svg>
